<?xml version="1.0" standalone="no"?>
<!DOCTYPE svg PUBLIC "-//W3C//DTD SVG 20010904//EN"
 "http://www.w3.org/TR/2001/REC-SVG-20010904/DTD/svg10.dtd">
<svg version="1.0" xmlns="http://www.w3.org/2000/svg"
 width="968.000000pt" height="968.000000pt" viewBox="0 0 968.000000 968.000000"
 preserveAspectRatio="xMidYMid meet">
<metadata>
Created by potrace 1.11, written by Peter Selinger 2001-2013
</metadata>
<g transform="translate(0.000000,968.000000) scale(0.100000,-0.100000)"
fill="#000000" stroke="none">
<path d="M4407 8204 c-1 -1 -49 -5 -106 -9 -57 -3 -119 -8 -137 -11 -18 -2
-54 -6 -79 -9 -62 -7 -125 -15 -155 -19 -14 -2 -47 -7 -75 -11 -27 -3 -58 -9
-68 -11 -10 -3 -30 -7 -45 -9 -15 -2 -49 -9 -75 -14 -27 -6 -53 -9 -58 -6 -5
4 -9 2 -9 -3 0 -5 -6 -9 -12 -9 -20 -1 -80 -13 -88 -18 -3 -2 -17 -6 -31 -9
-100 -21 -299 -86 -439 -143 -127 -52 -341 -160 -348 -175 -2 -5 -8 -8 -13 -8
-9 0 -89 -49 -99 -61 -3 -3 -15 -11 -27 -18 -71 -37 -276 -220 -393 -351 -45
-51 -234 -300 -250 -330 -7 -14 -16 -27 -20 -30 -14 -10 -155 -252 -171 -292
-6 -16 -15 -28 -19 -28 -4 0 -11 -12 -15 -27 -3 -15 -10 -30 -14 -33 -7 -5
-22 -33 -129 -260 -84 -179 -216 -509 -302 -755 -23 -66 -46 -129 -51 -140 -5
-11 -11 -29 -14 -40 -3 -16 -73 -226 -101 -305 -3 -8 -5 -16 -5 -17 0 -2 -6
-18 -15 -38 -8 -19 -15 -38 -15 -42 -1 -5 -3 -12 -5 -18 -119 -355 -164 -476
-226 -604 -38 -76 -45 -85 -87 -103 -86 -36 -186 -90 -227 -121 -48 -37 -110
-120 -120 -163 -16 -63 -12 -156 8 -203 36 -85 150 -168 281 -203 46 -12 62
-27 32 -29 -18 -2 -16 -1 -89 -23 -53 -17 -115 -42 -206 -84 -49 -23 -131 -74
-152 -95 -10 -9 -22 -17 -26 -17 -27 0 -163 -163 -167 -200 0 -3 -3 -9 -7 -15
-14 -22 -5 -140 12 -175 40 -77 144 -143 262 -165 13 -3 34 -7 48 -10 92 -19
341 -25 540 -11 63 4 117 9 120 11 3 1 36 6 75 10 38 4 72 8 75 10 3 2 28 6
55 9 28 3 61 8 75 11 14 3 42 7 62 10 20 3 59 10 85 16 26 6 57 12 68 14 11 2
31 6 45 9 139 25 310 86 440 154 73 39 230 139 245 156 6 7 20 19 33 28 12 8
44 36 70 60 26 25 54 44 62 43 41 -7 95 -17 196 -39 12 -2 45 -7 75 -11 30 -3
61 -8 69 -10 8 -3 43 -7 78 -9 34 -3 67 -8 72 -11 6 -3 10 -1 10 5 0 6 5 8 11
4 12 -7 42 -10 219 -19 58 -3 148 -7 200 -10 212 -11 330 -16 417 -18 108 -2
105 10 37 -135 -24 -50 -44 -94 -44 -96 0 -3 -15 -37 -34 -78 -18 -40 -45
-102 -59 -138 -14 -36 -31 -78 -38 -95 -7 -16 -13 -32 -14 -35 0 -3 -13 -43
-27 -90 -23 -76 -38 -131 -39 -145 0 -3 -6 -26 -14 -52 -26 -91 -44 -225 -47
-348 0 -18 13 -100 23 -137 40 -155 153 -274 314 -329 41 -14 375 -18 460 -6
22 4 60 9 85 12 25 3 63 11 85 17 22 5 51 12 65 15 105 18 306 90 485 174 116
54 274 168 370 265 76 78 125 132 125 138 0 3 20 33 43 68 24 35 57 88 73 118
16 30 34 58 39 62 6 4 7 8 2 8 -4 0 2 17 13 37 11 21 20 42 20 46 0 5 6 23 14
40 27 59 66 183 82 262 1 6 7 29 13 53 7 24 14 55 16 70 2 15 8 47 13 72 6 25
13 63 16 85 4 22 8 47 11 55 2 8 6 31 9 50 8 51 15 82 19 86 2 2 20 6 39 8
117 15 408 90 493 126 11 5 63 27 115 49 88 37 179 81 258 127 l34 19 16 -24
c10 -14 32 -43 50 -65 17 -23 36 -45 40 -51 56 -74 78 -101 82 -105 8 -8 105
-124 126 -149 54 -69 268 -270 318 -300 71 -42 144 -62 216 -60 63 3 147 29
189 59 16 11 33 20 37 20 5 0 36 29 70 65 58 61 129 181 136 230 2 11 6 25 10
30 3 6 9 35 13 65 4 30 9 64 11 75 6 26 5 241 0 325 -5 77 -20 193 -31 250 -3
14 -7 39 -10 55 -5 34 -8 50 -24 115 -7 25 -14 56 -17 69 -3 14 -8 29 -11 34
-3 6 -7 20 -9 31 -2 19 -42 138 -63 191 -52 126 -137 274 -195 339 -14 16 -26
31 -26 34 0 2 14 34 31 71 17 36 35 75 40 86 5 11 25 56 44 100 20 44 36 81
35 83 0 1 7 19 16 40 8 20 23 55 32 77 8 22 20 43 26 47 6 4 7 8 3 8 -8 0 70
159 83 170 3 3 17 23 30 45 13 22 32 49 42 59 10 11 18 24 18 28 0 5 5 6 10 3
6 -3 10 -2 10 3 0 5 18 32 41 60 39 48 46 52 166 92 69 24 137 49 152 56 14 8
29 14 33 14 14 0 213 100 278 140 36 22 76 45 90 52 14 7 32 18 40 25 8 6 65
48 125 94 120 90 147 114 269 234 129 127 193 209 250 322 108 211 83 380 -79
538 -145 142 -389 300 -575 373 -30 12 -68 27 -85 33 -36 14 -32 13 -125 39
-152 42 -244 54 -415 54 -116 0 -175 -5 -269 -20 -16 -3 -33 -7 -36 -9 -4 -3
-25 -7 -46 -11 -45 -7 -194 -59 -246 -85 -21 -11 -38 -16 -38 -13 0 4 -8 1
-17 -8 -10 -8 -40 -25 -68 -39 -27 -13 -52 -26 -55 -29 -3 -3 -34 -23 -70 -44
-36 -22 -66 -43 -68 -48 -2 -4 -8 -8 -14 -8 -10 0 -149 -101 -179 -129 -9 -9
-34 -30 -55 -47 -22 -18 -61 -53 -88 -78 -28 -25 -52 -46 -55 -46 -3 0 -16 15
-28 33 -23 32 -38 49 -175 200 -78 85 -183 189 -238 233 -19 16 -41 34 -48 41
-48 46 -312 229 -312 216 0 -3 -8 1 -17 9 -24 21 -273 141 -348 168 -133 47
-262 88 -287 90 -4 0 -26 7 -48 15 -22 8 -43 14 -45 14 -6 -1 -52 7 -95 17
-67 14 -117 23 -165 29 -22 3 -51 7 -65 10 -26 4 -104 13 -205 21 -59 5 -533
12 -538 8z"/>
</g>
</svg>
