<svg xmlns="http://www.w3.org/2000/svg" style="isolation:isolate" viewBox="315 728 242 169" width="242" height="169">
  <defs>
    <clipPath id="a">
      <path d="M0 0h951v1122H0z"/>
    </clipPath>
  </defs>
  <g clip-path="url(#a)">
    <clipPath id="b">
      <path d="M-52-129h951V993H-52V-129z" fill="#FFF"/>
    </clipPath>
    <g clip-path="url(#b)">
      <path d="M507.359 812.672c-.071.612 2.609 3.352 2.98 3.906 1.886 2.825 3.236 5.654 4.354 8.876a65.456 65.456 0 0 1 3.622 21.031c.029 4.886-.598 9.746-3.958 13.497-3.116 3.479-7.486 5.167-11.966 3.247-6.136-2.631-18.118-19.475-18.118-19.475s21.333-16.178 23.086-31.082z" fill="#4D9A40"/>
      <path d="M516.517 792.08s-.105.446-.312 1.253c-2.109 8.226-5.511 16.306-9.018 24.013-4.646 10.207-9.785 19.506-19.189 25.995-12.138 8.376-25.421 10.728-39.856 11.112-15.914.423-31.854.667-47.757-.227-6.817-.382-13.695-.445-20.432-1.669-2.886-.525-5.785-1.111-8.553-2.097-1.657-.59-7.016-2.461-7.439-4.51-.246-1.194 2.215-3.226 2.999-4.124l13.263-15.166 28.387-32.461c.261-.299 1.429-2.088 1.853-2.119l57.279-4.167 43.251-1.251 5.524 5.418z" fill="#2C7536"/>
      <path d="M475.924 784.812c-.566-.077-.343 8.396-.25 9.037.534 3.727 1.926 7.36 4.301 10.308 4.11 5.101 10.542 7.562 16.842 8.575 3.616.583 12.273.922 13.996-3.566.986-2.573 7.506-17.676 7.506-17.676l-42.395-6.678z" fill="#56AC48"/>
      <path d="M476.857 785.135a49.986 49.986 0 0 1 2.129-9.097 50.758 50.758 0 0 1 6.961-13.58c1.494-2.069.572-2.256 2.445-3.99 1.022-.945 3.43 1.673 4.281 2.118-.587-3.526-4.841-7.759-7.162-10.374a63.31 63.31 0 0 0-10.71-9.592c-18.436-13.084-43.208-14.131-64.878-10.516-14.779 2.465-29.812 8.12-40.102 19.438-23.354 25.69-30.1 73.059-37.406 78.904-7.306 5.844-9.271 10.46-4.383 13.16 8.695 4.8 39.176 4.257 48.803 3.351 10.478-.986 32.356-6.283 49.972-21.771 8.475-7.014 15.78-12.859 25.717-13.152 9.935-.292 23.231-6.15 24.693-9.789 1.31-3.257-.925-7.862-.725-11.345.072-1.259.194-2.516.365-3.765z" fill="#3371B4"/>
    </g>
    <clipPath id="c">
      <path d="M369.821 750.225c-23.353 25.69-30.1 73.058-37.406 78.903-7.306 5.845-9.271 10.462-4.383 13.161 8.695 4.8 39.176 4.257 48.803 3.351 10.478-.986 32.356-6.284 49.972-21.772 8.476-7.013 15.781-12.858 25.718-13.15 9.934-.293 23.23-6.151 24.693-9.79 1.309-3.258-.926-7.862-.725-11.345.072-1.259.193-2.517.364-3.765a49.905 49.905 0 0 1 2.13-9.097 50.74 50.74 0 0 1 6.96-13.58c1.494-2.069 5.468-6.75 7.341-8.485 1.2-1.112 1.013-.12-.102-2.133-3.842-6.929-26.961-16.993-36.164-19.86-5.974-1.859-16.163-3.452-27.82-3.453-20.105-.001-44.582 4.736-59.381 21.015z" fill="#FFF"/>
    </clipPath>
    <g clip-path="url(#c)" fill="#55A57C">
      <path d="M483.877 794.602c-2.589-.56-5.134-1.148-6.903-3.725-.8-1.165-3.24-1.902-4.107-.551-1.333 2.078-2.01 1.07-3.148.166-.696-.552-1.515-.982-2.333-1.344-2.374-1.051-4.501-2.185-3.083-5.404.095-.215-.178-.592-.28-.894-3.377-.067-6.709-1.858-10.129-.262-1.437-.319-2.868-.669-4.311-.953-3.027-.595-5.178.681-5.966 3.596-.255.941-.638 1.579-1.613 1.947-1.129.427-2.178 1.068-3.261 1.615l.005-.004h-.001.001-.001c-.939-.083-1.647.374-2.286.989l-.012-.012-.001.001c-3.064.794-3.201 1.076-1.707 3.89.45.848-.109 1.548-.191 2.316l-1.654.661h-.001c-1.483 3.813-.08 8.616 2.382 11.954.96 1.302.54 1.612 1.272 3.081a7.974 7.974 0 0 0 3.286.828c3.534.144 7.065.35 10.598.532l1.178 1.183.001.001c1.189 1.822 3.295 1.891 5.044 2.643-2.542 4.645-1.577 9.227.406 13.706 1.162 2.627-.311 4.237-1.903 5.805-1.364 1.342-1.894 2.831-1.463 4.678 1.354 1.179 1.468 2.58 1.016 4.257-.42 1.553-1.308 3.227-.367 4.797 1.229 2.056 1.35 4.158.772 6.353-.177.673-.129 1.14.097 1.461 13.088-10.139 22.892-24.688 26.893-42.081a74.317 74.317 0 0 0 1.77-21.23zM457.431 767.225c.841.118 1.682.284 2.522-.003v-.001l1.194-.759.001-.001-.237-1.019a95.616 95.616 0 0 0-.47-.205c-1.71-1.813-2.005-3.987-1.615-6.334v-.001c-1.541-.573-2.973-.781-3.786 1.115.299.39.546.836.905 1.158 1.506 1.351 2.126 2.549-.355 3.511a.602.602 0 0 0-.115.061 3.026 3.026 0 0 1-.174.272 4.024 4.024 0 0 1-.502.581 1.339 1.339 0 0 1-.095.403c.694.891 1.791.876 2.727 1.222z"/>
      <path d="M450.736 762.477c-.423.636-.841 1.307-.58 2.029.306.849 1.194.02 1.724.399h-.001l.99-.352.003-.001c.263-.188.511-.402.792-.559 2.36-1.327 2.379-1.604.193-3.182-1.181.29-2.368.529-3.121 1.666zM471.484 756.341c-.929.296-1.966.242-2.862.589-1.974.763-1.793 1.688-.715 3.449 1.088 1.776 2.088 3.013 4.28 2.852.039-.003.111.44.168.675l-.224 2.469c-1.035-.245-2.074-.473-3.103-.739-1.815-.47-3.568-.661-5.004.917-.34.895-.979 1.423-1.931 1.564v-.001c-.406-.035-.816-.126-1.218-.098-3.282.225-3.501.617-2.63 3.794.317 1.154-.208 1.969-1.569 1.672-.624-.137-1.171-.594-1.793-.768-3.619-1.016-5.502-.55-5.855 3.242-.287 3.075 1.682 3.497 3.676 4.224l.969.245c1.94.332 3.217-.493 4.595-1.9 1.249-1.277 2.334-3.251 4.668-3.019 1 .313 2.003.257 3.007.021.451-.452.956-.727 1.616-.486l.001.001.156 1.986h.001v-.015c1.133.569 1.996 1.39 2.443 2.602.213.114.494.176.62.352.437.608 1.577.996 1.058 1.93-.417.754-1.318.326-2.022.194-.24-.045-.478-.096-.717-.145.095.766.552 1.309 1.098 1.798l1.458.305.981-.28c.716-1.62 1.503-3.243.095-4.745-.115-.111-.237-.226-.367-.349l.001.005c-.82-.393-1.662-.767-1.631-1.893l.01-.011c-.531-.82-.624-1.692-.316-2.613h.001c1.91.324 3.83.634 4.327 2.998l.378.607c1.136.394 1.337 1.211 1.022 2.261-.068.32-.138.639-.207.957l.459 2.151.752 1.228c.642.548 1.186.826 1.633-.257a7.894 7.894 0 0 1 1.235-2.066c.419-.497 1.149-.732 1.769-.499.725.273.287.964.289 1.488.001.802.015 1.604.025 2.406v.001c.659 1.298 1.689 1.929 2.896 2.243-1.76-11.454-5.538-20.535 5.172-24.437 3.133-1.14 4.035-14.14-18.695-6.905zM401.876 839.258c-.263-3.98.82-4.757 4.713-3.996 2.466.482 4.693-.914 5.495-3.293 1.195-3.543 1.899-7.391 5.679-9.415.528-.283.866-.979 1.208-1.535.434-.708.492-1.381-.408-1.85-1.805-.939-2.265-2.685-2.636-4.476l-.003-.017v-.001c-3.4-1.046-7.099-1.282-9.949-3.803-.75-.663-1.648-1.187-1.213-2.381.562-1.546.114-3.057-.059-4.582-.006-.005-.01-.011-.015-.017-.448-.459-.661-1.287-1.369-1.319-3.288-.145-4.622-2.13-5.323-5.069-.24-1.003-.928-2.277-2.646-1.725-2.234.717-4.08.408-5.379-1.976-1.253-2.3-4.162-2.847-5.974-1.432l-.001-.001-1.655.757-.706.866c-2.369.703-4.054-1.487-6.258-1.483l-.395-.586c.18-.796.37-1.59.536-2.389.87-4.179.84-4.229-3.22-5.789l.015-.634c.449-.473.93-.918 1.337-1.424.499-.619 1.278-1.279.678-2.141-.718-1.031-1.464-.047-2.121.227-2.365.985-4.713 1.881-7.267.649l.001.002c-.782-1.363-1.461-2.823-.669-4.341 1.51-2.895 3.42-5.235 7.003-5.927 2.247-.433 4.215.086 6.272.543 2.046.456 4.752.257 4.09 3.729-.017.086.218.221.336.333l.848 1.141.001.001 1.281.306c.24-4.459 1.456-5.783 6.188-6.733 1.362-.78 2.793-1.447 3.362-3.131.214-.631.902-.863 1.601-.823v-.001.001l-.006.011c.835-1.356 2.224-1.93 3.572-2.562.054-.049.104-.077.145-.068 3.389-.864 6.284-2.72 9.182-4.572.958.092 1.641 1.357 2.787.655-.25-.792-.919-1.084-1.611-1.351-.511-1.168.285-1.712 1.078-2.257.787.209 1.644.302 2.118 1.09.929 1.547 2.289 1.702 3.808 1.13.538-.203 1.016-.189 1.517-.049.048.014.095.021.144.037.075.346-.034.631-.219.884-.551.751-1.793 1.228-1.063 2.205.733.978 2.155 1.44 3.266 2.142.134.086.231.231.345.348l.966-.714h.001c-.026-1.214-.863-1.828-1.728-2.483-.895-.676-1.287-1.586.246-1.802 1.298-.181 1.893-.719 2.091-1.95.203-1.273-.686-1.724-1.534-2.237-.879-1.675-.168-3.319.097-4.971-1.05.173-2.093.406-3.149.504-1.433.132-2.964.255-1.744-2 .357-.661.265-1.337-.447-1.695-1.649-.831-3.135-2.2-5.219-1.717-1.445.734-1.668 2.153-1.872 3.519-.244 1.633-1.043 2.514-2.744 2.465-1.652-.047-2.821.662-3.432 2.226l-.023.014c-.604.386-1.187 1.024-1.969.516-.845-.55-.378-1.391-.155-2.017.57-1.594-.256-2.299-1.555-2.769-.855-.31-1.695-.607-2.349-1.297-1.769-1.864-1.285-3.987 1.152-4.563 2.163-.51 4.181-1.562 6.435-1.703.568-.036 1.235-.199 1.694.028 1.963.967 3.328 1.47 4.31 1.384l.098-.503c-.353-.445-.372-1.226.075-1.206 2.704.114 4.975-2.436 7.904-1.124 1.061.475 2.465.629 2.527 1.905.07 1.451-1.533 1.061-2.421 1.431-.36.151-.798.115-1.2.164v-.001l-1.292 1.123.001.006 3.208 1.271c.076.077.152.137.227.187.865.702 1.838 1.114 3.001 1.015h.001c.438-1.765 1.63-1.788 3.045-1.33.817.264 1.427-.037 1.887-.733.519-.785.109-1.183-.579-1.508-.8-.378-.618-1.06-.46-1.698.171-.693.065-1.241-.492-1.762-3.333-3.12-6.947-5.457-11.827-4.467l-1.147.682v.001c-.812 1.047.241 3.815-2.686 2.914l-.119-.024.001-.098c-1.372-1.408-1.392-2.574.692-3.457.485-.207.865-.663 1.293-1.005-1.865-.428-3.73-.857-5.596-1.284-.537.467-.897 1.031-.954 1.759.326.413 1.284.083 1.188.972-.116 1.073-1.13 1.037-1.816 1.405-1.887-.459-3.72.496-5.601.217-2.222-.392-1.616-1.873-1.258-3.259l.001-.001c1.346.122 2.62.965 4.033.397.024-.152.055-.301.089-.45l.034.008c.946-.231 1.783-.624 2.255-1.547-1.413-1.242-2.226.1-3.2.745v.001a1999.41 1999.41 0 0 0-3.323-.792v-.001c-.636-2.135-1.642-3.882-4.2-3.998l-2.54-.008-.583.34c-.439.746-1.422.665-2.011 1.211.669 1.193 2.084.805 2.879 1.575l-.706 2.072-.001.001c.083-.013.169-.046.245-.029 1.294.274 2.895-.111 3.565 1.535.169.414-.175.958-.591.858-1.562-.371-3.617.068-4.119-2.256l-3.112-1.369-.001-.001c-.703-1.431-2.264-1.316-3.5-1.786-13.218 5.239-24.802 14.205-33.176 25.915-.003 1.007-.545 1.968-.618 2.969l2.528 2.129c-.357 1.589-.766 3.167-1.06 4.767-.545 2.963 1.388 6.749 3.775 7.511.748-1.505.173-2.925-.415-4.264-.723-1.647-.946-3.274-.516-5.021.146-.589-.178-1.472.898-1.34.892.11.865.843.805 1.524-.208 2.34.143 4.561 1.415 6.585l.226 1.527.021.026c.522.684 1.122 1.262.578 2.321-1.456 2.834-.32 5.458 2.813 6.755l.001.002c.43.652 1.167.635 1.807.83l.001.001c.649.866 1.506.668 2.428.624.804-.038 2.119-.054 1.922 1.221-.185 1.211.602 1.374 1.24 1.761 1.249.759 2.535 1.457 3.805 2.18.657 1.592 1.26 3.212 2.375 4.566.616 1.626 2.387 1.204 3.466 1.97.826.587 2.626.213 2.329 1.962-.29 1.707.337 3.982-2.343 4.479-2.109.391-2.968 1.809-3.084 3.819-.062.13-.1.268-.113.413h-.001l-.824 1.397-.569 2.415c.409 2.068 1.963 3.542 2.807 5.389.477 1.042 1.074 2.014.906 3.236-.046.345-.023.662.07.945.141.234.287.464.439.692.154.146.337.273.557.376 1.867.874 2.884 2.567 4.061 4.111 1.04.771.597 1.766.386 2.704-.792 3.526-1.604 7.046-2.409 10.569.787.542 1.422 1.049.791 2.196-1.34 2.432-2.061 4.787-.459 7.605.805 1.414-.098 3.336-1.124 4.801l-.001.002c-.055.662-.468 1.329.027 1.983-.063 1.037.187 1.98.831 2.805v.001c.076.342.15.683.224 1.024.08 1.971 1.12 3.439 2.489 4.733v.001c-.03.133-.054.267-.071.401l.001.001v-.001c.903.643 1.124 2.114 2.56 2.111l.003.003c.908.965 2.199.806 3.323 1.135 1.077-1.037.497-1.81-.403-2.533-1.011-1.535-1.557-3.051-.178-4.718.802-.97.513-1.712-.63-2.344-1.564-.866-1.704-1.914-.036-2.929.581-.355 1.089-.809.656-1.61-.305-.565-1.582-.764-.803-1.718.731-.895 1.683-.17 2.54-.09l.001-.001-.038-.011v-.001l.15-.393c4.831.61 7.154-3.116 10.068-5.82l.002-.001c1.802-.94 3.286-1.898 3.119-4.442z"/>
      <path d="M406.868 761.937c-.067.349.104.645.471.726.458.101.788-.062.886-.56.051-.446-.075-.857-.547-.914-.468-.056-.729.327-.81.748zM412.304 761.829h-.002c-.705-.044-1.41-.489-2.098-.083-.121.072-.109.645.037.841.582.776 1.378.659 2.178.38l.206-.071.021-.007h.001l.271-.855.927.186c.105-.488.084-.935-.504-1.078-.564-.134-.81.278-1.037.687z"/>
    </g>
    <clipPath id="d">
      <path d="M369.821 749.542c-23.353 25.69-30.1 73.058-37.406 78.903-7.306 5.845-9.271 10.462-4.383 13.161 8.695 4.8 39.176 4.257 48.803 3.351 10.478-.986 32.356-6.284 49.972-21.772 8.476-7.013 15.781-12.858 25.718-13.15 9.934-.293 23.23-6.151 24.693-9.79 1.309-3.258-.926-7.862-.725-11.345.072-1.259.193-2.517.364-3.765a49.905 49.905 0 0 1 2.13-9.097 50.74 50.74 0 0 1 6.96-13.58c1.494-2.069 5.468-6.75 7.341-8.485 1.2-1.112 1.013-.12-.102-2.133-3.842-6.929-20.15-15.991-29.353-18.855-6.294-1.961-18.287-3.774-31.977-3.775-21.711 0-47.697 4.56-62.035 20.332z" fill="#FFF"/>
    </clipPath>
    <g clip-path="url(#d)">
      <path d="M363.944 756.913c.176.314-2.911 4.277-3.076 4.646-1.488 3.334-3.207 8.871-4.105 12.409-2.302 9.079-2.161 16.275 1.682 24.971 2.57 5.818 8.487 10.495 14.191 13.308 4.982 2.458 10.66 3.077 16.211 3.267 11.85.403 24.133.962 35.684-2.064 13.836-3.625 28.121-8.189 40.935-14.597 4.111-2.047 10.295-5.057 12.943-8.976-1.129 1.671 2.575-2.829 2.931-.861l3.067 16.896 3.985 21.956-124.448 43.835s-65.115-28.654-65.115-30.4c0-1.745 58.7-95.871 58.7-95.871l6.415 11.481z" fill="#0C0C0C"/>
    </g>
    <clipPath id="e">
      <path d="M-52-129h951V993H-52V-129z" fill="#FFF"/>
    </clipPath>
    <g clip-path="url(#e)">
      <path d="M476.216 793.092c-.017-24.401 12.755-38.595 28.236-47.48 15.772-9.053 33.32-5.371 46.925 5.872 1.708 1.411 3.359 2.974 4.373 4.944 4.459 8.652-6.671 18.581-12.668 23.391-8.052 6.455-17.854 10.67-27.962 12.607-11.03 2.113-25.093 9.741-36.237 9.375-1.431-.047-2.665-6.332-2.667-8.709zM393.315 841.303l-41.425 1.781c-11.204.483-23.892.873-32.795 8.619-1.357 1.181-2.624 2.59-3.088 4.329-4.277 16.044 38.46 7.211 44.413 4.884 5.325-2.082 10.278-5.175 14.345-9.206 2.09-2.07 3.97-4.38 5.498-6.896.139-.229 1.401-3.01 1.581-3.018l11.471-.493zM461.604 814.133s2.045 30.101 0 40.036c-2.045 9.936-3.215 28.932-23.67 37.99-6.27 2.778-12.908 4.541-19.78 4.785-4.661.164-8.58.334-12.128-2.788-6.566-5.774-3.629-15.949-1.543-23.16l.135-.462c4.586-13.443 18.383-39.185 22.21-43.251 9.352-9.935 34.135-25.725 34.776-13.15z" fill="#56AC48"/>
      <path d="M488.393 793.352s18.144 2.156 28.124-1.271c9.817-3.373 1.746-.693-2.492 9.414-3.008 7.172-4.981-4.862-25.632-8.143z" fill="#4D9A40"/>
    </g>
    <clipPath id="f">
      <path d="M321.819 812.672l-8.573 39.355 34.679 15 132.691-34.872s5.148-21.157-1.1-28.574c-5.638-6.69-2.187-22.384-2.187-22.384l2.102-1.451-157.612 32.926z" fill="#FFF"/>
    </clipPath>
    <g clip-path="url(#f)">
      <path d="M333.043 827.825c-.198.212-.396.43-.515.685a1.448 1.448 0 0 0-.133.533c-.006.096-.003.194.005.291.009.096.044.2.044.296.414 2.034 2.067 3.55 3.797 4.54 1.387.793 2.906 1.349 4.445 1.762 22.838 6.141 47.399 1.25 69.198-7.92 11.539-4.855 22.541-10.873 33.36-17.143 5.489-3.182 11.852-6.977 17.322-10.188 4.805-2.821 14.514-9.874 18.962-13.295 3.799-2.922.355 4.82.937 6.615.558 1.72.379 4.871-3.908 7.812-2.507 1.721-7.517 5.431-13.697 9.361-19.64 12.488-39.626 22.847-61.732 30.129-12.367 4.074-26.833 5.946-39.869 6.415-6.532.235-13.092-.102-19.549-1.139-4.797-.772-13.208-1.494-16.521-5.556-1.477-1.811-1.832-4.41-1.101-6.63.709-2.156 2.261-3.67 4.12-4.873.382-.247 3.548-1.955 5.324-2.548.03-.009.253-.114.28-.099.059.032-.424.568-.466.618-.094.112-.199.223-.303.334z" fill="#255D2B"/>
    </g>
    <clipPath id="g">
      <path d="M-52-129h951V993H-52V-129z" fill="#FFF"/>
    </clipPath>
    <g clip-path="url(#g)">
      <path d="M482.096 767.612s-2.493 11.136-2.446 15.109c.073 6.206 2.036 11.87 4.36 16.218 3.749 7.011 7.621 10.152 12.807 13.793 0 0-13.879-1.376-18.448-10.919-2.956-6.173-2.136-11.113-1.848-15.151.718-10.082 5.575-19.05 5.575-19.05z" fill="#4D9A40" opacity=".59"/>
    </g>
  </g>
</svg>
